<svg width="24" height="24" viewBox="0 0 24 24" fill="none" xmlns="http://www.w3.org/2000/svg">
<path d="M19.5 12C19.5002 10.5406 19.0746 9.11284 18.2753 7.89174C17.4761 6.67064 16.338 5.70925 15.0004 5.12541C13.6629 4.54157 12.1841 4.36064 10.7452 4.6048C9.30641 4.84896 7.97007 5.50761 6.90002 6.5H8.25002C8.44893 6.5 8.63969 6.57902 8.78034 6.71967C8.921 6.86032 9.00002 7.05109 9.00002 7.25C9.00002 7.44891 8.921 7.63968 8.78034 7.78033C8.63969 7.92098 8.44893 8 8.25002 8H5.25002C5.0511 8 4.86034 7.92098 4.71969 7.78033C4.57903 7.63968 4.50002 7.44891 4.50002 7.25V4.25C4.50002 4.05109 4.57903 3.86032 4.71969 3.71967C4.86034 3.57902 5.0511 3.5 5.25002 3.5C5.44893 3.5 5.63969 3.57902 5.78035 3.71967C5.921 3.86032 6.00002 4.05109 6.00002 4.25V5.292C7.58044 3.87892 9.60897 3.06911 11.728 3.00531C13.8471 2.94152 15.9207 3.62784 17.5833 4.9433C19.2458 6.25876 20.3906 8.11891 20.8159 10.1958C21.2412 12.2728 20.9196 14.4332 19.9079 16.2962C18.8962 18.1593 17.2592 19.6054 15.2856 20.3796C13.312 21.1538 11.1285 21.2065 9.11982 20.5283C7.11118 19.8501 5.40643 18.4846 4.30607 16.6725C3.2057 14.8604 2.78036 12.718 3.10502 10.623C3.13513 10.4464 3.22755 10.2864 3.36553 10.1721C3.5035 10.0578 3.67788 9.99674 3.85702 10C4.31702 10 4.64802 10.438 4.58102 10.892C4.42991 11.9118 4.49069 12.9519 4.75956 13.9472C5.02843 14.9425 5.49962 15.8717 6.1437 16.6767C6.78779 17.4818 7.59093 18.1453 8.50298 18.6261C9.41503 19.1068 10.4164 19.3943 11.4445 19.4707C12.4727 19.547 13.5055 19.4106 14.4786 19.0699C15.4517 18.7291 16.344 18.1915 17.0999 17.4904C17.8559 16.7894 18.4592 15.94 18.8721 14.9953C19.2851 14.0506 19.4988 13.031 19.5 12ZM12.5 7.75C12.5 7.55109 12.421 7.36032 12.2803 7.21967C12.1397 7.07902 11.9489 7 11.75 7C11.5511 7 11.3603 7.07902 11.2197 7.21967C11.079 7.36032 11 7.55109 11 7.75V12.25C11 12.664 11.336 13 11.75 13H14.25C14.4489 13 14.6397 12.921 14.7803 12.7803C14.921 12.6397 15 12.4489 15 12.25C15 12.0511 14.921 11.8603 14.7803 11.7197C14.6397 11.579 14.4489 11.5 14.25 11.5H12.5V7.75Z" fill="#565656"/>
</svg>
