<svg width="25" height="23" viewBox="0 0 25 23" fill="none" xmlns="http://www.w3.org/2000/svg">
<path d="M24 3.5H12.5H1M1 3.5L4.53846 1M1 3.5L4.53846 6" stroke="#565656" stroke-width="1.25" stroke-linecap="round" stroke-linejoin="round"/>
<path d="M1 19.5H12H17.5H23M23 19.5L19.6154 17M23 19.5L19.6154 22" stroke="#565656" stroke-width="1.25" stroke-linecap="round" stroke-linejoin="round"/>
<path d="M1.94978 14C1.89111 14 1.84311 13.9813 1.80578 13.944C1.76845 13.9067 1.74978 13.8613 1.74978 13.808V8.6C1.74978 8.54133 1.76845 8.49333 1.80578 8.456C1.84311 8.41867 1.89111 8.4 1.94978 8.4H2.58178C2.65645 8.4 2.71245 8.42133 2.74978 8.464C2.78711 8.50133 2.81111 8.53067 2.82178 8.552L4.36578 11.432L5.92578 8.552C5.93645 8.53067 5.96045 8.50133 5.99778 8.464C6.03511 8.42133 6.09111 8.4 6.16578 8.4H6.78978C6.84845 8.4 6.89645 8.41867 6.93378 8.456C6.97111 8.49333 6.98978 8.54133 6.98978 8.6V13.808C6.98978 13.8613 6.97111 13.9067 6.93378 13.944C6.89645 13.9813 6.84845 14 6.78978 14H6.11778C6.05911 14 6.01111 13.9813 5.97378 13.944C5.94178 13.9067 5.92578 13.8613 5.92578 13.808V10.344L4.80578 12.48C4.77911 12.528 4.74445 12.5707 4.70178 12.608C4.65911 12.64 4.60311 12.656 4.53378 12.656H4.20578C4.13111 12.656 4.07245 12.64 4.02978 12.608C3.99245 12.5707 3.96045 12.528 3.93378 12.48L2.81378 10.344V13.808C2.81378 13.8613 2.79511 13.9067 2.75778 13.944C2.72045 13.9813 2.67511 14 2.62178 14H1.94978ZM10.0862 14.08C9.61149 14.08 9.20349 14.0027 8.86216 13.848C8.52082 13.688 8.25416 13.4453 8.06216 13.12C7.87016 12.7893 7.76616 12.3787 7.75016 11.888C7.74482 11.6587 7.74216 11.432 7.74216 11.208C7.74216 10.984 7.74482 10.7547 7.75016 10.52C7.76616 10.0347 7.87282 9.62933 8.07016 9.304C8.26749 8.97867 8.53682 8.73333 8.87816 8.568C9.22482 8.40267 9.62749 8.32 10.0862 8.32C10.5448 8.32 10.9475 8.40267 11.2942 8.568C11.6408 8.73333 11.9128 8.97867 12.1102 9.304C12.3075 9.62933 12.4142 10.0347 12.4302 10.52C12.4408 10.7547 12.4462 10.984 12.4462 11.208C12.4462 11.432 12.4408 11.6587 12.4302 11.888C12.4142 12.3787 12.3102 12.7893 12.1182 13.12C11.9262 13.4453 11.6568 13.688 11.3102 13.848C10.9688 14.0027 10.5608 14.08 10.0862 14.08ZM10.0862 13.16C10.4328 13.16 10.7155 13.0587 10.9342 12.856C11.1528 12.648 11.2702 12.312 11.2862 11.848C11.2968 11.6133 11.3022 11.3973 11.3022 11.2C11.3022 10.9973 11.2968 10.7813 11.2862 10.552C11.2755 10.2427 11.2168 9.992 11.1102 9.8C11.0088 9.60267 10.8702 9.46133 10.6942 9.376C10.5182 9.28533 10.3155 9.24 10.0862 9.24C9.86216 9.24 9.66216 9.28533 9.48616 9.376C9.31016 9.46133 9.16882 9.60267 9.06216 9.8C8.96082 9.992 8.90482 10.2427 8.89416 10.552C8.88882 10.7813 8.88616 10.9973 8.88616 11.2C8.88616 11.3973 8.88882 11.6133 8.89416 11.848C8.91016 12.312 9.02749 12.648 9.24616 12.856C9.46482 13.0587 9.74482 13.16 10.0862 13.16ZM13.3887 14C13.3353 14 13.29 13.9813 13.2527 13.944C13.2153 13.9067 13.1967 13.8613 13.1967 13.808V8.6C13.1967 8.54133 13.2153 8.49333 13.2527 8.456C13.29 8.41867 13.3353 8.4 13.3887 8.4H15.3407C15.8793 8.4 16.322 8.48267 16.6687 8.648C17.0207 8.81333 17.2847 9.05867 17.4607 9.384C17.642 9.70933 17.7353 10.1067 17.7407 10.576C17.7513 10.8107 17.7567 11.0187 17.7567 11.2C17.7567 11.3813 17.7513 11.5867 17.7407 11.816C17.73 12.312 17.6393 12.7227 17.4687 13.048C17.298 13.368 17.0393 13.608 16.6927 13.768C16.3513 13.9227 15.914 14 15.3807 14H13.3887ZM14.3087 13.08H15.3407C15.6393 13.08 15.882 13.0373 16.0687 12.952C16.2553 12.8667 16.3913 12.7307 16.4767 12.544C16.5673 12.352 16.6153 12.1013 16.6207 11.792C16.626 11.632 16.6287 11.4933 16.6287 11.376C16.634 11.2533 16.634 11.1333 16.6287 11.016C16.6287 10.8933 16.626 10.7547 16.6207 10.6C16.61 10.1627 16.5007 9.84 16.2927 9.632C16.0847 9.424 15.754 9.32 15.3007 9.32H14.3087V13.08ZM18.7137 14C18.6603 14 18.615 13.9813 18.5777 13.944C18.5403 13.9067 18.5217 13.8613 18.5217 13.808V8.6C18.5217 8.54133 18.5403 8.49333 18.5777 8.456C18.615 8.41867 18.6603 8.4 18.7137 8.4H22.2337C22.2923 8.4 22.3403 8.41867 22.3777 8.456C22.415 8.49333 22.4337 8.54133 22.4337 8.6V9.128C22.4337 9.18133 22.415 9.22667 22.3777 9.264C22.3403 9.30133 22.2923 9.32 22.2337 9.32H19.6017V10.736H22.0577C22.1163 10.736 22.1643 10.7547 22.2017 10.792C22.239 10.824 22.2577 10.8693 22.2577 10.928V11.424C22.2577 11.4827 22.239 11.5307 22.2017 11.568C22.1643 11.6 22.1163 11.616 22.0577 11.616H19.6017V13.08H22.2977C22.3563 13.08 22.4043 13.0987 22.4417 13.136C22.479 13.1733 22.4977 13.2213 22.4977 13.28V13.808C22.4977 13.8613 22.479 13.9067 22.4417 13.944C22.4043 13.9813 22.3563 14 22.2977 14H18.7137Z" fill="#565656"/>
</svg>
