<svg width="16" height="17" viewBox="0 0 16 17" fill="none" xmlns="http://www.w3.org/2000/svg">
<path d="M6.37527 0.294667C6.47898 0.420698 6.54253 0.574936 6.55768 0.737453C6.57283 0.89997 6.5389 1.0633 6.46027 1.20633C5.84597 2.33419 5.52516 3.59843 5.52736 4.88273C5.52736 9.15522 9.01038 12.6149 13.3031 12.6149C13.863 12.6149 14.4081 12.5564 14.9319 12.4449C15.0925 12.4101 15.2598 12.4234 15.4128 12.4831C15.5659 12.5428 15.698 12.6463 15.7926 12.7806C15.8925 12.9203 15.9434 13.0891 15.9374 13.2607C15.9315 13.4322 15.869 13.5971 15.7597 13.7295C14.9263 14.7532 13.875 15.578 12.6824 16.1438C11.4897 16.7096 10.1859 17.0021 8.86587 17C3.96754 17 0 13.0537 0 8.1915C0 4.53209 2.24622 1.39334 5.44448 0.0630322C5.60379 -0.00429928 5.78065 -0.0181188 5.94849 0.0236497C6.11633 0.0654181 6.26609 0.160519 6.37527 0.294667Z" fill="#565656"/>
</svg>
